<?xml version="1.0" encoding="iso-8859-1"?>
<!-- Generator: Adobe Illustrator 27.2.0, SVG Export Plug-In . SVG Version: 6.00 Build 0)  -->
<svg version="1.1" baseProfile="basic" xmlns="http://www.w3.org/2000/svg" xmlns:xlink="http://www.w3.org/1999/xlink" x="0px"
	 y="0px" viewBox="0 0 50 50" xml:space="preserve">
<g id="Layer_2">
</g>
<g id="Layer_1">
</g>
<g id="&#x421;&#x43B;&#x43E;&#x439;_1">
</g>
<g id="&#x421;&#x43B;&#x43E;&#x439;_4">
</g>
<g id="Layer_6">
	<path d="M34,25l-4,4H19.45c-0.53,0-1.04,0.21-1.41,0.59l-2.117,2.117C15.735,31.895,15.481,32,15.216,32H10l5-5c2-2,3.08-2,4-2H34z
		"/>
	<path d="M40,19l-4,4H19c-3,0-4.09,1.08-4.92,1.92L7,32H2.414c-0.891,0-1.337-1.077-0.707-1.707l8.365-8.365
		C11.947,20.053,14.489,19,17.14,19H40z"/>
	<path d="M48.293,20.707l-11,11C37.105,31.895,36.851,32,36.586,32h-4.172c-0.891,0-1.337-1.077-0.707-1.707L43,19h4.586
		C48.477,19,48.923,20.077,48.293,20.707z"/>
</g>
</svg>